<svg xmlns="http://www.w3.org/2000/svg" x="0px" y="0px"
width="64" height="64"
viewBox="0 0 172 172"
style=" fill:#000000;"><g fill="none" fill-rule="nonzero" stroke="none" stroke-width="1" stroke-linecap="butt" stroke-linejoin="miter" stroke-miterlimit="10" stroke-dasharray="" stroke-dashoffset="0" font-family="none" font-weight="none" font-size="none" text-anchor="none" style="mix-blend-mode: normal"><path d="M0,172v-172h172v172z" fill="none"></path><g fill="#ffffff"><path d="M141.42969,34.63112h-110.85937c-7.41787,0.00833 -13.42917,6.01963 -13.4375,13.4375v75.86241c0.00833,7.41787 6.01963,13.42917 13.4375,13.4375h110.85938c7.41787,-0.00833 13.42917,-6.01963 13.4375,-13.4375v-75.86241c-0.00833,-7.41787 -6.01963,-13.42917 -13.4375,-13.4375zM30.57031,41.34987h110.85938c1.78595,-0.00105 3.49838,0.71113 4.75688,1.97834l-57.16615,37.31123c-2.26446,1.48657 -5.20104,1.4643 -7.4427,-0.05644l-55.58859,-37.42478c1.24183,-1.16296 2.87982,-1.80954 4.58118,-1.80835zM148.14844,123.93137c-0.00426,3.7089 -3.00985,6.71449 -6.71875,6.71875h-110.85937c-3.7089,-0.00426 -6.71449,-3.00985 -6.71875,-6.71875v-74.11184l53.9697,36.335c4.48115,3.03686 10.34913,3.0802 14.87464,0.10985l55.45253,-36.19357z"></path></g></g></svg>