<svg xmlns="http://www.w3.org/2000/svg" x="0px" y="0px"
width="64" height="64"
viewBox="0 0 172 172"
style=" fill:#000000;"><g fill="none" fill-rule="nonzero" stroke="none" stroke-width="1" stroke-linecap="butt" stroke-linejoin="miter" stroke-miterlimit="10" stroke-dasharray="" stroke-dashoffset="0" font-family="none" font-weight="none" font-size="none" text-anchor="none" style="mix-blend-mode: normal"><path d="M0,172v-172h172v172z" fill="none"></path><g fill="#ffffff"><path d="M86,6.88c-43.688,0 -79.12,35.432 -79.12,79.12c0,43.688 35.432,79.12 79.12,79.12c43.688,0 79.12,-35.432 79.12,-79.12c0,-43.688 -35.432,-79.12 -79.12,-79.12zM65.36,120.4c0,1.72 -1.72,3.44 -3.44,3.44h-13.76c-1.72,0 -3.44,-1.72 -3.44,-3.44v-51.6c0,-1.72 1.72,-3.44 3.44,-3.44h13.76c1.72,0 3.44,1.72 3.44,3.44zM55.04,61.92c-5.504,0 -10.32,-4.816 -10.32,-10.32c0,-5.504 4.816,-10.32 10.32,-10.32c5.504,0 10.32,4.816 10.32,10.32c0,5.504 -4.816,10.32 -10.32,10.32zM130.72,120.4c0,1.72 -1.72,3.44 -3.44,3.44h-13.76c-1.72,0 -3.44,-1.72 -3.44,-3.44v-25.8c0,-4.816 -3.784,-8.6 -8.6,-8.6c-4.816,0 -8.6,3.784 -8.6,8.6v25.8c0,1.72 -1.72,3.44 -3.44,3.44h-13.76c-1.72,0 -3.44,-1.72 -3.44,-3.44v-51.6c0,-1.72 1.72,-3.44 3.44,-3.44h13.76c1.72,0 3.44,1.376 3.44,3.44c3.784,-2.064 7.568,-3.44 12.04,-3.44c14.104,0 25.8,11.696 25.8,25.8z"></path></g></g></svg>