<svg xmlns="http://www.w3.org/2000/svg" x="0px" y="0px"
width="64" height="64"
viewBox="0 0 172 172"
style=" fill:#000000;"><g fill="none" fill-rule="nonzero" stroke="none" stroke-width="1" stroke-linecap="butt" stroke-linejoin="miter" stroke-miterlimit="10" stroke-dasharray="" stroke-dashoffset="0" font-family="none" font-weight="none" font-size="none" text-anchor="none" style="mix-blend-mode: normal"><path d="M0,172v-172h172v172z" fill="none"></path><g fill="#ffffff"><path d="M86,16.125c-38.58981,0 -69.875,31.28519 -69.875,69.875c0,38.58981 31.28519,69.875 69.875,69.875c38.58981,0 69.875,-31.28519 69.875,-69.875c0,-38.58981 -31.28519,-69.875 -69.875,-69.875zM67.1875,118.25h-13.4375v-48.375h13.4375zM60.42844,64.5h-0.07525c-4.00975,0 -6.60319,-2.9885 -6.60319,-6.72144c0,-3.81356 2.67406,-6.71606 6.75637,-6.71606c4.08769,0 6.60588,2.9025 6.68113,6.71606c0,3.73025 -2.59344,6.72144 -6.75906,6.72144zM118.25,118.25h-13.4375v-24.1875c0,-8.0625 -3.88612,-10.75 -8.0625,-10.75c-3.88344,0 -8.0625,2.6875 -8.0625,10.75v24.1875h-13.4375v-48.375h13.4375v8.0625c0.92181,-2.63644 5.332,-8.0625 13.4375,-8.0625c10.75,0 16.125,8.0625 16.125,21.5z"></path></g></g></svg>